<svg xmlns="http://www.w3.org/2000/svg" viewBox="0 0 64 64" width="64" height="64"><circle cx="54.17" cy="40.53" r="1.39" fill="#D4712B" fill-opacity="0.71"/><circle cx="9.83" cy="40.53" r="1.39" fill="#D4712B" fill-opacity="0.71"/><circle cx="10.91" cy="20.93" r="1.41" fill="#D4712B" fill-opacity="0.72"/><circle cx="53.09" cy="20.93" r="1.41" fill="#D4712B" fill-opacity="0.72"/><circle cx="38.49" cy="55.00" r="1.43" fill="#D4712B" fill-opacity="0.73"/><circle cx="25.51" cy="55.00" r="1.43" fill="#D4712B" fill-opacity="0.73"/><circle cx="32.00" cy="8.00" r="1.49" fill="#D4712B" fill-opacity="0.75"/><circle cx="47.68" cy="50.17" r="1.49" fill="#D4712B" fill-opacity="0.75"/><circle cx="16.32" cy="50.17" r="1.49" fill="#D4712B" fill-opacity="0.75"/><circle cx="56.00" cy="32.00" r="1.50" fill="#D4712B" fill-opacity="0.75"/><circle cx="8.00" cy="32.00" r="1.50" fill="#D4712B" fill-opacity="0.75"/><circle cx="47.68" cy="13.83" r="1.51" fill="#D4712B" fill-opacity="0.75"/><circle cx="16.32" cy="13.83" r="1.51" fill="#D4712B" fill-opacity="0.75"/><circle cx="32.00" cy="56.00" r="1.52" fill="#D4712B" fill-opacity="0.76"/><circle cx="38.49" cy="9.00" r="1.57" fill="#D4712B" fill-opacity="0.77"/><circle cx="25.51" cy="9.00" r="1.57" fill="#D4712B" fill-opacity="0.77"/><circle cx="53.09" cy="43.07" r="1.59" fill="#D4712B" fill-opacity="0.78"/><circle cx="10.91" cy="43.07" r="1.60" fill="#D4712B" fill-opacity="0.78"/><circle cx="54.17" cy="23.47" r="1.61" fill="#D4712B" fill-opacity="0.79"/><circle cx="9.83" cy="23.47" r="1.61" fill="#D4712B" fill-opacity="0.79"/><circle cx="44.00" cy="52.21" r="1.66" fill="#D4712B" fill-opacity="0.80"/><circle cx="55.03" cy="34.51" r="1.70" fill="#D4712B" fill-opacity="0.82"/><circle cx="48.97" cy="16.24" r="1.70" fill="#D4712B" fill-opacity="0.82"/><circle cx="15.03" cy="16.24" r="1.70" fill="#D4712B" fill-opacity="0.82"/><circle cx="8.97" cy="34.51" r="1.71" fill="#D4712B" fill-opacity="0.82"/><circle cx="41.18" cy="11.41" r="1.76" fill="#D4712B" fill-opacity="0.84"/><circle cx="20.00" cy="52.21" r="1.76" fill="#D4712B" fill-opacity="0.84"/><circle cx="22.82" cy="11.41" r="1.76" fill="#D4712B" fill-opacity="0.84"/><circle cx="49.94" cy="45.36" r="1.77" fill="#D4712B" fill-opacity="0.84"/><circle cx="32.00" cy="9.71" r="1.78" fill="#D4712B" fill-opacity="0.84"/><circle cx="53.09" cy="26.01" r="1.81" fill="#D4712B" fill-opacity="0.85"/><circle cx="38.49" cy="53.58" r="1.82" fill="#D4712B" fill-opacity="0.86"/><circle cx="10.91" cy="26.01" r="1.83" fill="#D4712B" fill-opacity="0.86"/><circle cx="52.19" cy="36.81" r="1.88" fill="#D4712B" fill-opacity="0.88"/><circle cx="14.06" cy="45.36" r="1.89" fill="#D4712B" fill-opacity="0.88"/><circle cx="47.68" cy="18.65" r="1.89" fill="#D4712B" fill-opacity="0.88"/><circle cx="16.32" cy="18.65" r="1.94" fill="#D4712B" fill-opacity="0.89"/><circle cx="45.03" cy="47.18" r="1.94" fill="#D4712B" fill-opacity="0.90"/><circle cx="38.49" cy="13.82" r="1.96" fill="#D4712B" fill-opacity="0.90"/><circle cx="49.94" cy="28.30" r="1.99" fill="#D4712B" fill-opacity="0.91"/><circle cx="11.81" cy="36.81" r="2.00" fill="#D4712B" fill-opacity="0.91"/><circle cx="47.72" cy="38.73" r="2.05" fill="#D4712B" fill-opacity="0.93"/><circle cx="44.00" cy="20.69" r="2.06" fill="#D4712B" fill-opacity="0.94"/><circle cx="32.00" cy="54.05" r="2.10" fill="#D4712B" fill-opacity="0.94"/><circle cx="25.51" cy="53.58" r="2.13" fill="#D4712B" fill-opacity="0.96"/><circle cx="45.03" cy="30.12" r="2.17" fill="#D4712B" fill-opacity="0.97"/><circle cx="14.06" cy="28.30" r="2.19" fill="#D4712B" fill-opacity="0.98"/><circle cx="38.85" cy="48.35" r="2.19" fill="#D4712B" fill-opacity="0.98"/><circle cx="32.00" cy="48.75" r="2.59" fill="#D4712B" fill-opacity="1.00"/><circle cx="25.15" cy="48.35" r="2.75" fill="#FFE9D6" fill-opacity="1.00"/><circle cx="18.97" cy="47.18" r="2.36" fill="#D4712B" fill-opacity="1.00"/><circle cx="41.97" cy="40.10" r="2.27" fill="#D4712B" fill-opacity="1.00"/><circle cx="35.42" cy="40.81" r="2.67" fill="#D4712B" fill-opacity="1.00"/><circle cx="28.58" cy="40.81" r="3.09" fill="#FFE9D6" fill-opacity="1.00"/><circle cx="22.03" cy="40.10" r="3.03" fill="#FFE9D6" fill-opacity="1.00"/><circle cx="16.28" cy="38.73" r="2.50" fill="#D4712B" fill-opacity="1.00"/><circle cx="38.85" cy="31.29" r="2.48" fill="#D4712B" fill-opacity="1.00"/><circle cx="32.00" cy="31.70" r="3.02" fill="#FFE9D6" fill-opacity="1.00"/><circle cx="25.15" cy="31.29" r="3.27" fill="#FFE9D6" fill-opacity="1.00"/><circle cx="18.97" cy="30.12" r="2.81" fill="#FFE9D6" fill-opacity="1.00"/><circle cx="38.49" cy="22.06" r="2.32" fill="#D4712B" fill-opacity="1.00"/><circle cx="32.00" cy="22.53" r="2.89" fill="#FFE9D6" fill-opacity="1.00"/><circle cx="25.51" cy="22.06" r="3.09" fill="#FFE9D6" fill-opacity="1.00"/><circle cx="20.00" cy="20.69" r="2.44" fill="#D4712B" fill-opacity="1.00"/><circle cx="32.00" cy="14.82" r="2.56" fill="#D4712B" fill-opacity="1.00"/><circle cx="25.51" cy="13.82" r="2.27" fill="#D4712B" fill-opacity="1.00"/></svg>
